<svg xmlns="http://www.w3.org/2000/svg" width="389" height="57" fill="none"><mask id="a" width="253" height="56" x="0" y="1" maskUnits="userSpaceOnUse" style="mask-type:luminance"><path fill="#fff" d="M253 1H0v56h253V1Z"/></mask><g fill="#fff" fill-rule="evenodd" clip-rule="evenodd" mask="url(#a)"><path d="M128.056 16.006c-9.822-.004-17.791 7.765-17.795 17.362-.008 9.59 7.953 17.37 17.776 17.373 9.821.004 17.795-7.765 17.799-17.358.003-9.593-7.954-17.373-17.78-17.377Zm-.016 27.247c-5.508 0-9.969-4.426-9.965-9.885 0-5.456 4.472-9.878 9.981-9.878 5.509.004 9.965 4.43 9.965 9.89 0 5.455-4.472 9.877-9.981 9.873Zm124.958 6.424c-10.259 3.016-17.149.273-17.141-10.393v-4.026l7.752.004v2.424c0 7.13 5.188 7.722 9.393 5.932v6.059h-.004Zm-227.312-.123c-10.26 3.016-17.15.27-17.145-10.392V26.89h7.76v10.67c-.008 7.134 5.18 7.722 9.392 5.932v6.059l-.008.003Zm17.477.012h-7.435l.019-32.602h6.797l-.004 5.505c1.141-1.287 2.236-2.378 3.308-3.27 2.796-2.324 6.487-3.069 9.78-2.689v7.361C50.651 22.37 43.44 25.554 43.17 30.53l-.007 19.036Zm156.856.086h-7.436l.02-32.603h6.797v5.513c3.272-3.692 6.897-6.34 11.187-6.274 8.883.139 11.304 6.889 11.296 14.373l-.007 19.002h-7.436l.012-18.787c.004-11.545-14.418-8.587-14.422-.257l-.011 19.033ZM66.787 1c2.67 0 4.828 2.144 4.828 4.78 0 2.643-2.167 4.783-4.832 4.783s-4.828-2.148-4.824-4.784c0-2.643 2.162-4.783 4.828-4.779ZM25.195 16.96v6.735L0 23.684l.008-6.735 25.187.015v-.004Zm210.664 14.9v-8.053l-8.542-.004v-6.735l8.55.008V8.639l7.756.004v8.433h8.886v6.735h-8.898v8.052h-7.752v-.003ZM8.554 13.745l.004-5.225 7.749.003v5.226l-7.753-.004Zm54.378 3.234 7.691.007-.016 32.596-7.694-.004.02-32.6Zm112.072.061h7.435l-.019 32.604h-6.797v-5.51c-3.273 3.693-6.897 6.34-11.188 6.27-8.886-.138-11.303-6.888-11.296-14.369l.008-19.002h7.435c0 6.266-.003 12.525-.007 18.787-.008 11.546 14.417 8.587 14.421.258l.008-19.037Zm-79.002 6.438a9.849 9.849 0 0 1 6.878 2.793l4.956-5.782a17.73 17.73 0 0 0-11.83-4.499c-9.737-.008-17.633 7.765-17.64 17.358-.004 9.593 7.883 17.373 17.62 17.377 4.55 0 8.701-1.698 11.826-4.483l-5.114-5.625a9.843 9.843 0 0 1-6.708 2.62c-5.458-.004-9.884-4.43-9.876-9.885 0-5.46 4.43-9.881 9.892-9.878"/></g><mask id="b" width="182" height="57" x="207" y="0" maskUnits="userSpaceOnUse" style="mask-type:luminance"><path fill="#fff" d="M389 0H207v56.038h182V0Z"/></mask><g fill="#fff" mask="url(#b)"><path d="M323.327 49.026a7.927 7.927 0 0 0 2.811 1.446 8.037 8.037 0 0 0 5.738-.534c3.928-1.968 5.486-6.676 3.477-10.522a7.903 7.903 0 0 0-3.477-3.402 8.025 8.025 0 0 0-5.742-.53 7.874 7.874 0 0 0-2.567 1.263v-7.798h-3.168v14.029c0 .132 0 .26.012.39h-.012v7.014h2.771l.153-1.356h.004Zm2.811-10.69a4.832 4.832 0 0 1 1.982-.424 4.89 4.89 0 0 1 3.756 1.773 5.116 5.116 0 0 1 1.189 3.293 5.132 5.132 0 0 1-1.189 3.293 4.878 4.878 0 0 1-3.756 1.773 4.804 4.804 0 0 1-1.982-.425c-1.743-.783-2.964-2.568-2.964-4.641s1.221-3.858 2.964-4.641Zm23.946 5.422a4.47 4.47 0 0 1-.989 2.833c-.726.888-1.786 1.453-2.967 1.453-1.079 0-2.057-.467-2.771-1.227v-.008a4.434 4.434 0 0 1-1.19-3.051v-8.184h-3.163v8.184c0 2.81 1.707 5.354 4.349 6.46a7.227 7.227 0 0 0 5.742-.085c2.535-1.154 4.156-3.64 4.156-6.38V35.57h-3.167v8.188Zm16.222-8.025a7.174 7.174 0 0 0-2.771-.553 7.158 7.158 0 0 0-2.971.639c-2.535 1.153-4.156 3.643-4.152 6.379v8.183h3.163v-8.183a4.48 4.48 0 0 1 .985-2.829c.726-.893 1.79-1.458 2.971-1.458 1.079 0 2.057.468 2.771 1.228a4.45 4.45 0 0 1 1.185 3.055v8.183h3.164v-8.183c.003-2.814-1.708-5.354-4.349-6.46h.004Zm22.957-.158h-2.771l-.153 1.356a7.944 7.944 0 0 0-2.814-1.446 8.043 8.043 0 0 0-5.742.534c-3.928 1.968-5.483 6.68-3.469 10.526a7.927 7.927 0 0 0 3.469 3.393 8.024 8.024 0 0 0 5.742.538c.93-.26 1.802-.69 2.571-1.262v7.794h3.163v-14.03c0-.132 0-.26-.012-.389h.012v-7.014h.004Zm-5.738 12.049c-.62.28-1.295.424-1.982.424a4.889 4.889 0 0 1-3.76-1.776 5.139 5.139 0 0 1-1.185-3.29 5.138 5.138 0 0 1 1.185-3.288 4.889 4.889 0 0 1 3.76-1.777 4.83 4.83 0 0 1 1.982.425c1.747.783 2.967 2.568 2.967 4.645 0 2.077-1.22 3.857-2.967 4.64v-.003Z"/></g><path fill="#fff" d="M284.853 50.895c-1.325 0-2.532-.286-3.62-.856-1.069-.59-1.919-1.476-2.553-2.656-.613-1.2-.92-2.705-.92-4.515 0-1.83.317-3.334.95-4.515.653-1.18 1.514-2.055 2.582-2.626a7.348 7.348 0 0 1 3.561-.885c1.564 0 2.948.334 4.156 1.003a7.345 7.345 0 0 1 2.849 2.803c.692 1.2 1.038 2.607 1.038 4.22 0 1.613-.346 3.02-1.038 4.22a7.344 7.344 0 0 1-2.849 2.803c-1.208.67-2.592 1.004-4.156 1.004Zm-8.488-.177V28.822h3.265v10.092l-.297 3.925.149 3.925v3.954h-3.117Zm8.221-2.656c.95 0 1.801-.207 2.553-.62a4.668 4.668 0 0 0 1.78-1.83c.456-.786.683-1.701.683-2.744 0-1.062-.227-1.977-.683-2.744a4.467 4.467 0 0 0-1.78-1.8c-.752-.433-1.603-.65-2.553-.65-.949 0-1.8.217-2.552.65-.752.413-1.355 1.013-1.81 1.8-.436.767-.653 1.682-.653 2.744 0 1.043.217 1.958.653 2.745a4.881 4.881 0 0 0 1.81 1.83c.752.412 1.603.619 2.552.619Zm12.613 8.556a7.052 7.052 0 0 1-2.285-.384c-.732-.236-1.356-.59-1.87-1.062l1.365-2.42c.376.354.802.63 1.276.826.495.197 1 .295 1.514.295.673 0 1.227-.176 1.662-.53.435-.335.841-.925 1.217-1.771l.949-2.095.297-.413 6.084-14.046h3.176l-7.509 17.115c-.494 1.14-1.038 2.036-1.632 2.685-.574.669-1.217 1.13-1.929 1.387-.693.275-1.464.413-2.315.413Zm3.502-5.37-7.153-16.23h3.384l5.965 13.75-2.196 2.48Z"/></svg>