<svg width="18" height="16" viewBox="0 0 18 16" fill="none" xmlns="http://www.w3.org/2000/svg">
<path d="M0.185458 15.99C0.249491 16.0067 0.317521 15.9975 0.374801 15.9643C0.43208 15.9312 0.473994 15.8768 0.491458 15.813C1.00646 13.8915 3.09946 13.3935 4.35046 13.0955C4.66396 13.021 4.91146 12.962 5.07246 12.8925C6.49746 12.274 6.96196 11.279 7.10096 10.553C7.10922 10.5098 7.10595 10.4652 7.09146 10.4237C7.07698 10.3821 7.0518 10.3452 7.01846 10.3165C6.27646 9.676 5.65046 8.7145 5.25546 7.6085C5.24421 7.57683 5.2267 7.54775 5.20396 7.523C4.68146 6.955 4.38146 6.3545 4.38146 5.876C4.38146 5.5965 4.48696 5.409 4.72446 5.2675C4.76003 5.24623 4.78976 5.21645 4.81097 5.18084C4.83218 5.14523 4.8442 5.10491 4.84596 5.0635C4.95646 2.5165 6.77046 0.5115 8.99546 0.4985L9.04896 0.502C11.285 0.533 13.0875 2.581 13.152 5.164C13.1529 5.19929 13.1614 5.23398 13.1767 5.26578C13.192 5.29758 13.2139 5.32578 13.241 5.3485C13.3975 5.481 13.4705 5.649 13.4705 5.877C13.4705 6.2775 13.257 6.77 12.87 7.263C12.8513 7.28659 12.8371 7.31336 12.828 7.342C12.428 8.61 11.71 9.7295 10.859 10.4145C10.8236 10.4429 10.7967 10.4804 10.781 10.5229C10.7653 10.5655 10.7615 10.6115 10.77 10.656C10.909 11.3815 11.3735 12.376 12.7985 12.9955C12.967 13.0685 13.2285 13.1255 13.56 13.197C14.7985 13.465 16.871 13.9145 17.3795 15.813C17.388 15.8447 17.4027 15.8744 17.4227 15.9005C17.4427 15.9265 17.4677 15.9483 17.4962 15.9647C17.5246 15.9811 17.556 15.9917 17.5886 15.996C17.6212 16.0002 17.6542 15.998 17.686 15.9895C17.7177 15.981 17.7474 15.9663 17.7734 15.9462C17.7995 15.9262 17.8213 15.9013 17.8377 15.8728C17.8541 15.8443 17.8647 15.8129 17.8689 15.7804C17.8732 15.7478 17.871 15.7147 17.8625 15.683C17.275 13.4895 14.927 12.981 13.666 12.708C13.3735 12.6445 13.121 12.59 12.998 12.536C12.068 12.132 11.495 11.5165 11.2925 10.7035C12.156 9.962 12.8785 8.818 13.2915 7.535C13.73 6.965 13.971 6.378 13.971 5.8765C13.971 5.542 13.863 5.263 13.649 5.045C13.53 2.243 11.5305 0.0365 9.04896 0.001L8.97446 0C6.53796 0.013 4.52996 2.1615 4.35446 4.915C4.04146 5.145 3.88246 5.4675 3.88246 5.877C3.88246 6.4685 4.21696 7.176 4.80246 7.825C5.20696 8.9365 5.83396 9.913 6.58046 10.5965C6.37896 11.4125 5.80546 12.03 4.87346 12.4345C4.75296 12.487 4.51296 12.5445 4.23496 12.6105C2.96446 12.9125 0.600458 13.475 0.00845779 15.684C-0.00863897 15.748 0.000403151 15.8163 0.0335957 15.8737C0.0667882 15.931 0.121413 15.9729 0.185458 15.99Z" fill="white"/>
</svg>
